<svg xmlns="http://www.w3.org/2000/svg" version="1.1" viewBox="-5.0 -10.0 110.0 135.0">
 <path d="m49.484 30.355c-8.9727 0.003906-17.797 2.4727-25.535 7.1367-3.1992 1.9297-5.9492 4.4609-8.6445 7.0273v-8.4023h-12.527v31.359h32.484v-12.539h-13.086c2.4453-2.6094 5.207-4.8828 8.25-6.7148 5.8164-3.5039 12.379-5.3398 19.059-5.3398s13.242 1.832 19.059 5.3398c6.1797 3.7266 11.27 9.207 14.668 15.844l2.8555 5.5781 11.156-5.7227-2.8555-5.5781c-4.4414-8.668-11.141-15.898-19.363-20.855-7.7383-4.6641-16.547-7.1328-25.52-7.1367z"/>
<text x="0.0" y="117.5" font-size="5.0" font-weight="bold" font-family="Arbeit Regular, Helvetica, Arial-Unicode, Arial, Sans-serif" fill="#000000">Created by Alvida</text><text x="0.0" y="122.5" font-size="5.0" font-weight="bold" font-family="Arbeit Regular, Helvetica, Arial-Unicode, Arial, Sans-serif" fill="#000000">from Noun Project</text></svg>